<svg xmlns="http://www.w3.org/2000/svg" xmlns:xlink="http://www.w3.org/1999/xlink" viewBox="0 0 959.48 335.39"><defs><style>.a{fill:none;}.b{clip-path:url(#a);}.c{fill:#5eebc4;}.d{fill:#242a55;}.e{fill:#171a38;}</style><clipPath id="a"><path class="a" d="M616,952.94a33,33,0,0,0-33,33V1355.3a33,33,0,0,0,33,33H1892a33,33,0,0,0,33-33V985.94a33,33,0,0,0-33-33Z"/></clipPath></defs><title>cta-back-01</title><g class="b"><path class="c" d="M327.72,374.72l187.37-57.28a11.08,11.08,0,0,1,4.8-.41,11.45,11.45,0,0,1,4.37,1.57,13.36,13.36,0,0,1,3.68,3.33,14.86,14.86,0,0,1,2.44,4.77,13.66,13.66,0,0,1,.3,6.41,27.82,27.82,0,0,1-3,8.29L273,756.7l-3,4.82,5.15,2.34L718.55,965.74a28.17,28.17,0,0,1,7.14,5.2,13.76,13.76,0,0,1,3.33,5.48,14.93,14.93,0,0,1,.65,5.32,13.56,13.56,0,0,1-1.19,4.81,11.29,11.29,0,0,1-2.75,3.75,11.18,11.18,0,0,1-4.21,2.35l-187.37,57.28A34,34,0,0,1,517,1051c-5.5-1.08-11-3.46-16.26-5.77l-398-183.4,0,0,0,0a146.86,146.86,0,0,1-15.45-7.71,70.48,70.48,0,0,1-11.56-8.21,45.9,45.9,0,0,1-13.94-45.58,72.23,72.23,0,0,1,5-13.27,148.94,148.94,0,0,1,8.51-15l0,0,0,0,227.4-374.61c3.09-4.87,6.29-9.91,10.25-13.87A34.21,34.21,0,0,1,327.72,374.72Z"/><path class="d" d="M329.18,379.5c-11,3.36-15.41,9.66-22.19,20.35L79.46,774.66C66,795.83,62.68,809.08,67.11,823.56s14.61,23.6,37.77,33.72l397.86,183.33c11.77,5.15,19,7.9,30,4.54l187.37-57.28c4.3-1.32,5.36-6.13,4.18-10-.84-2.74-3.58-5.37-7.61-7.53l-443.5-202-10.3-4.69,5.91-9.64L523.19,339.19c2.44-4.58,3.25-8.29,2.41-11-1.18-3.86-4.75-7.25-9.05-5.94L329.18,379.5m-2.92-9.56,187.37-57.28c9.44-2.89,18.65,3.14,21.53,12.58q2.48,8.08-3.14,18.64L277.27,759.31l443.5,202q10.56,5.61,13,13.7c2.89,9.44-1.38,19.59-10.81,22.47l-187.37,57.29c-14.83,4.53-25,.26-36.89-4.94l-398-183.42c-23.82-10.41-37.37-21-43.14-39.87S57.09,791.25,71,769.3L298.44,394.66C305.4,383.69,311.43,374.47,326.26,369.94Z"/></g><path class="e" d="M959.48,311.56V0H0L408.43,197.53C657.83,318.14,814.85,369.46,959.48,311.56Z"/></svg>