<svg xmlns="http://www.w3.org/2000/svg" viewBox="0 0 540 148.74"><defs><style>.a{fill:#4f65f1;}.b{fill:#242a55;}</style></defs><title>cta-back-05-blue</title><path class="a" d="M279.45,107.26C230.83,67.9,192.18,42.07,157.84,26a265,265,0,0,0-26.75-10.88,200.45,200.45,0,0,0-25.76-7,164.33,164.33,0,0,0-25-3,150.69,150.69,0,0,0-24.61,1,156.24,156.24,0,0,0-24.54,5.13A182.27,182.27,0,0,0,6.38,20.63c-2.12,1-4.24,2-6.38,3.08v125H330.68Z"/><path class="b" d="M0,29.45C87.6-16,163.73,20,276.3,111.15l46.44,37.59h15.88l-56-45.36C166.66,9.53,87.05-24.42,0,18.14Z"/></svg>