<svg xmlns="http://www.w3.org/2000/svg" xmlns:xlink="http://www.w3.org/1999/xlink" viewBox="0 0 540 370.16"><defs><style>.a{fill:none;}.b{clip-path:url(#a);}.c{fill:#0cf;}.d{fill:#242a55;}.e{fill:#f8648c;}</style><clipPath id="a"><path class="a" d="M-1172.47,952.94a33,33,0,0,0-33,33V1355.3a33,33,0,0,0,33,33h1276a33,33,0,0,0,33-33V985.94a33.05,33.05,0,0,0-33-33Z"/></clipPath></defs><title>cta-back-03-pink-blue</title><path class="c" d="M471,365.15H147.64L251.53,284a137.39,137.39,0,0,1,17.16-11.51,112.88,112.88,0,0,1,17-7.84,100.12,100.12,0,0,1,16.76-4.49A96.66,96.66,0,0,1,319,258.71c27,0,55.33,11.31,84.1,33.61a298.28,298.28,0,0,1,37.35,34.94A429.4,429.4,0,0,1,471,365.15Z"/><path class="d" d="M461.11,360.15c-30.25-40.07-83.27-96.44-142.14-96.44-22.14,0-43.8,8.15-64.36,24.21l-92.45,72.23h299m19.56,10H133.12l115.33-90.1c23.72-18.53,47.45-26.33,70.52-26.33,61.51,0,118.33,55.45,157.82,110.91Q478.77,367.39,480.67,370.15Z"/><path class="e" d="M510,365.15H407.67c4.53-7.68,8.3-14.42,11.47-20.47a206.68,206.68,0,0,0,10.43-22.81,98.2,98.2,0,0,0,5.55-20.57,60.24,60.24,0,0,0-.12-19.14,55,55,0,0,0-2.44-9.12,59.83,59.83,0,0,0-4.08-8.83,81.92,81.92,0,0,0-13.05-16.95,159.52,159.52,0,0,0-19.67-16.75c-7.53-5.54-16.27-11.29-26.71-17.56l-74-44.45a41.84,41.84,0,0,1-9.78-7.95,27.81,27.81,0,0,1-5.52-9,21.26,21.26,0,0,1-1.2-9.45,23.78,23.78,0,0,1,3.43-9.86L351,17.3a25.24,25.24,0,0,1,9.34-9.21A24.87,24.87,0,0,1,372.63,5a34.5,34.5,0,0,1,17.55,5.23l89.75,53.91c20.4,12.25,38.44,23.7,55.06,34.93V340.15a25,25,0,0,1-24.94,25H510Z"/><path class="d" d="M510,360.15a20,20,0,0,0,20-20V101.73C514.06,91,496.78,80.09,477.36,68.43L387.61,14.52a29.44,29.44,0,0,0-15-4.52,19.58,19.58,0,0,0-17.31,9.88L286.26,134.79c-3,5-3.61,10.05-1.81,15,1.92,5.34,6.6,10.45,13.17,14.4l74,44.45c44.12,26.5,63.91,47.55,68.3,72.64,4,22.86-5.33,46.92-23.56,78.85H510m0,10H398.86l1.23-2c44.46-74,46.69-102.64-33.61-150.87l-74-44.46c-17.32-10.4-24.24-27.41-14.78-43.15L346.76,14.73A29.53,29.53,0,0,1,372.64,0a39.26,39.26,0,0,1,20.12,6l89.75,53.91Q513.85,78.67,540,96.42V340.15a30,30,0,0,1-30,30h0Z"/></svg>