<svg xmlns="http://www.w3.org/2000/svg" viewBox="0 0 540 148.74"><defs><style>.a{fill:#5eebc4;}.b{fill:#242a55;}</style></defs><title>cta-back-04-green</title><path class="a" d="M0,143.62c.71-.18,1.44-.38,2.17-.6L189.54,85.73a11,11,0,0,0,4.2-2.34,11.5,11.5,0,0,0,2.75-3.75,13.56,13.56,0,0,0,1.19-4.81,14.88,14.88,0,0,0-.65-5.32A13.8,13.8,0,0,0,193.7,64a28.51,28.51,0,0,0-7.13-5.19L57.37,0H0Z"/><path class="b" d="M184.64,63.44c4,2.17,6.78,4.79,7.61,7.53,1.18,3.86.12,8.67-4.18,10L.7,138.24l-.7.19v10.31c1.18-.26,2.38-.56,3.63-.94L191,90.52c9.43-2.89,13.7-13,10.82-22.47q-2.48-8.1-13-13.71L69.44,0H45.31Z"/></svg>