<svg xmlns="http://www.w3.org/2000/svg" viewBox="0 0 540 169.76"><defs><style>.a{fill:#ffda5d;}.b{fill:#242a55;}</style></defs><title>cta-back-02-yellow</title><path class="a" d="M287.84,164.75h0a151.44,151.44,0,0,1-21.8-1.6,177,177,0,0,1-22.31-4.75,222.76,222.76,0,0,1-23-7.89c-7.71-3.11-15.75-6.8-23.9-11a462.61,462.61,0,0,1-51.1-31.06c-17.28-11.91-35.8-25.9-56.61-42.76L7.57,0H516.68c-22.45,27.57-46,55.51-65.19,75.05-10.14,10.3-20.11,19.76-29.64,28.11s-19.14,16.06-28.3,22.65a266.46,266.46,0,0,1-27.24,17.3,194.55,194.55,0,0,1-26.46,12.14,158.48,158.48,0,0,1-26,7.16A145.1,145.1,0,0,1,287.84,164.75Z"/><path class="b" d="M524,0l-4.1,5.06c-91.68,113.22-160,164.7-232,164.7h0C228.18,169.76,166,134.42,86,69.61L0,0H15.86L28.24,10l64,51.84C177,130.47,235.5,159.75,287.84,159.76c64.46,0,127.3-43.58,215.06-149.76l8.54-10Z"/></svg>