<svg xmlns="http://www.w3.org/2000/svg" viewBox="0 0 24 24"><defs><style>.a{fill:#98a2b8;fill-rule:evenodd;}</style></defs><title>icon-github</title><path class="a" d="M12,2.24a10,10,0,0,0-3.16,19.5c.5.09.68-.22.68-.49s0-.86,0-1.7c-2.78.61-3.37-1.34-3.37-1.34A2.65,2.65,0,0,0,5,16.75c-.91-.62.07-.61.07-.61a2.12,2.12,0,0,1,1.53,1A2.12,2.12,0,0,0,9.52,18h0a2.11,2.11,0,0,1,.63-1.33C8,16.41,5.62,15.56,5.62,11.73A3.83,3.83,0,0,1,6.65,9a3.57,3.57,0,0,1,.1-2.65s.84-.26,2.75,1a9.43,9.43,0,0,1,5,0c1.91-1.29,2.75-1,2.75-1A3.62,3.62,0,0,1,17.35,9a3.92,3.92,0,0,1,1,2.69c0,3.84-2.34,4.68-4.57,4.93a2.41,2.41,0,0,1,.68,1.85c0,1.34,0,2.42,0,2.75s.18.57.68.48A10,10,0,0,0,12,2.25Z"/></svg>
