<svg xmlns="http://www.w3.org/2000/svg" viewBox="0 0 24 24"><defs><style>.a{fill:#98a2b8;}</style></defs><title>icon-linkedin</title><path class="a" d="M20.09,21.5H3.91A1.39,1.39,0,0,1,2.5,20.13V3.87A1.39,1.39,0,0,1,3.91,2.5H20.09A1.39,1.39,0,0,1,21.5,3.87V20.13A1.39,1.39,0,0,1,20.09,21.5ZM5.32,9.62v9.07H8.14V9.62Zm9.09,2.26a1.22,1.22,0,0,1,1.27.81,4.27,4.27,0,0,1,.19,1.59v4.41h2.82v-5a5.67,5.67,0,0,0-.62-3.08A3,3,0,0,0,15.31,9.4a3.23,3.23,0,0,0-1.71.46,2.79,2.79,0,0,0-1,1h0V9.62H9.9v9.07h2.82V14.2A3.26,3.26,0,0,1,13,12.6a1.44,1.44,0,0,1,1.4-.72ZM6.73,5.12A1.63,1.63,0,1,0,8.36,6.75h0A1.63,1.63,0,0,0,6.73,5.12Z"/></svg>
