<svg xmlns="http://www.w3.org/2000/svg" viewBox="0 0 24 24"><defs><style>.a{fill:#98a2b8;}</style></defs><title>icon-twitter</title><path class="a" d="M8.1,20.53A12.17,12.17,0,0,0,20.36,8.27c0-.18,0-.37,0-.56A8.61,8.61,0,0,0,22.5,5.48,8.56,8.56,0,0,1,20,6.16a4.34,4.34,0,0,0,1.89-2.38,8.7,8.7,0,0,1-2.74,1.05,4.31,4.31,0,0,0-7.34,3.92A12.24,12.24,0,0,1,3,4.25,4.31,4.31,0,0,0,4.3,10a4.21,4.21,0,0,1-2-.54v.06A4.31,4.31,0,0,0,5.8,13.74a4.28,4.28,0,0,1-1.95.07,4.33,4.33,0,0,0,4,3,8.66,8.66,0,0,1-5.35,1.85,8.76,8.76,0,0,1-1-.07,12.17,12.17,0,0,0,6.6,1.94"/></svg>
