<svg id="visual" viewBox="0 0 900 900" width="900" height="900" xmlns="http://www.w3.org/2000/svg" xmlns:xlink="http://www.w3.org/1999/xlink" version="1.1"><path d="M0 842L25 844.7C50 847.3 100 852.7 150 852C200 851.3 250 844.7 300 828.5C350 812.3 400 786.7 450 769.2C500 751.7 550 742.3 600 753C650 763.7 700 794.3 750 804C800 813.7 850 802.3 875 796.7L900 791L900 901L875 901C850 901 800 901 750 901C700 901 650 901 600 901C550 901 500 901 450 901C400 901 350 901 300 901C250 901 200 901 150 901C100 901 50 901 25 901L0 901Z" fill="#eaedf2" stroke-linecap="round" stroke-linejoin="miter"></path></svg>