<?xml version="1.0" encoding="UTF-8" standalone="no"?>
<!-- Created with Inkscape (http://www.inkscape.org/) -->

<svg
   width="512"
   height="512"
   viewBox="0 0 512 512"
   version="1.1"
   id="svg5"
   xml:space="preserve"
   inkscape:version="1.2.2 (732a01da63, 2022-12-09)"
   sodipodi:docname="favi_icon.svg"
   xmlns:inkscape="http://www.inkscape.org/namespaces/inkscape"
   xmlns:sodipodi="http://sodipodi.sourceforge.net/DTD/sodipodi-0.dtd"
   xmlns="http://www.w3.org/2000/svg"
   xmlns:svg="http://www.w3.org/2000/svg"><sodipodi:namedview
     id="namedview7"
     pagecolor="#ffffff"
     bordercolor="#000000"
     borderopacity="0.25"
     inkscape:showpageshadow="2"
     inkscape:pageopacity="0.0"
     inkscape:pagecheckerboard="0"
     inkscape:deskcolor="#d1d1d1"
     inkscape:document-units="px"
     showgrid="false"
     inkscape:zoom="0.80957031"
     inkscape:cx="4.3232811"
     inkscape:cy="203.81182"
     inkscape:window-width="1920"
     inkscape:window-height="1009"
     inkscape:window-x="-8"
     inkscape:window-y="-8"
     inkscape:window-maximized="1"
     inkscape:current-layer="layer1" /><defs
     id="defs2" /><g
     inkscape:label="Capa 1"
     inkscape:groupmode="layer"
     id="layer1"><rect
       style="fill:#ffffff;fill-opacity:0.60000002;stroke:none;stroke-width:45.2014;stroke-linecap:round;stroke-linejoin:round;stroke-opacity:1"
       id="rect2672"
       width="362.23303"
       height="347.17722"
       x="100.08195"
       y="113.09325" /><g
       id="g1683"
       transform="matrix(1.6405019,0,0,1.6405019,-843.72931,-333.6262)"><path
         style="fill:none;fill-opacity:1;stroke:#282529;stroke-width:32.8;stroke-linecap:round;stroke-linejoin:round;stroke-dasharray:none;stroke-opacity:1"
         d="m 649.41418,426.90731 v -94.79988 l 75.08438,94.79988 v -94.79988"
         id="path1289-2-2"
         sodipodi:nodetypes="cccc" /><path
         id="path419-2-2"
         style="fill:#282529;fill-opacity:1;stroke:none;stroke-width:1;stroke-linecap:square;stroke-dasharray:none"
         d="m 583.06756,203.91787 c -39.41784,1.78233 -66.82148,39.72108 -68.75586,72.84765 l 0.0996,120.58789 c 0.5578,19.1551 6.41935,37.5376 19.43555,51.6563 l 44.97851,46.7793 c 10.63244,9.8317 28.3832,19.164 48.75,19.1289 h 127.04102 c 26.93622,0.1493 68.66551,-29.2667 71.79492,-73.92 V 315.67373 c -0.42273,-21.11132 -10.77722,-39.49655 -22.06836,-50.39453 l -50.75586,-48.0586 c -11.84909,-10.72815 -25.80536,-13.13534 -38.66797,-13.30273 z m 48.45117,71 h 117.89258 c 17.80207,0.14682 43.16815,17.63569 43,44.23437 v 113.48637 c 1.349,28.007 -20.99208,48.2938 -44.15625,48.2793 H 628.17498 c -22.48075,-0.9936 -42.22932,-21.3366 -41.76367,-44.1055 V 319.30459 c 0.54485,-22.80423 18.62744,-44.28163 45.10742,-44.38672 z" /></g></g></svg>
